<svg id="Layer_1" data-name="Layer 1" xmlns="http://www.w3.org/2000/svg" viewBox="0 0 92.66 28.2"><title>icon_jala_logo</title><path d="M26.79,17.15V14c0-3-2.34-3-2.45-3A2.43,2.43,0,0,0,22,13.65,2.48,2.48,0,0,0,24.35,16a3.89,3.89,0,0,0,2-.7v1.46a5.58,5.58,0,0,1-2.26.53,3.84,3.84,0,0,1-3.52-3.92,3.68,3.68,0,0,1,3.88-3.64,3.75,3.75,0,0,1,3.75,3.78v3.64H26.79Z"/><path d="M30.41,17.13V6.5H31.9l0,10.63H30.41Z"/><path d="M40,17.15V14c0-3-2.34-3-2.45-3a2.43,2.43,0,0,0-2.34,2.65A2.48,2.48,0,0,0,37.6,16a3.89,3.89,0,0,0,2-.7v1.46a5.58,5.58,0,0,1-2.26.53,3.84,3.84,0,0,1-3.52-3.92,3.68,3.68,0,0,1,3.88-3.64,3.75,3.75,0,0,1,3.75,3.78v3.64H40Z"/><path d="M69,17.15V13a1.71,1.71,0,0,0-1.6-2,1.94,1.94,0,0,0-1.85,2.17v4H64.11V6.5h1.43v3.94a3.13,3.13,0,0,1,2-.77,2.93,2.93,0,0,1,2.88,3.08v4.4H69Z"/><path d="M75.09,17.26A3.8,3.8,0,1,1,79,13.37,3.83,3.83,0,0,1,75.09,17.26Zm0.14-6.33a2.52,2.52,0,0,0-.13,5,2.52,2.52,0,0,0,2.47-2.58A2.45,2.45,0,0,0,75.23,10.93Z"/><path d="M83.39,17.15A2.55,2.55,0,0,1,81,16.21a2.49,2.49,0,0,1-.52-1.54V7.94h1.43V9.75h2.44v1.46H82v3.18a1.06,1.06,0,0,0,.39,1,1.8,1.8,0,0,0,1.25.28h0.83v1.47H83.39Z"/><path d="M88.78,17.26a3.8,3.8,0,1,1,3.88-3.89A3.83,3.83,0,0,1,88.78,17.26Zm0.14-6.33a2.52,2.52,0,0,0-.13,5,2.52,2.52,0,0,0,2.47-2.58A2.45,2.45,0,0,0,88.92,10.93Z"/><path d="M52.37,17.18V10.55q2.28,0,2.28-1.74a1.48,1.48,0,0,0-1.74-1.59q-1.76,0-1.76,2.19V28.2H43.63v-18a13.66,13.66,0,0,1,.49-4,8.08,8.08,0,0,1,1.68-2.92A9.42,9.42,0,0,1,49.13.87,10.26,10.26,0,0,1,53.26,0a8.85,8.85,0,0,1,6.48,2.6A8.69,8.69,0,0,1,62.36,9a8.1,8.1,0,0,1-2.35,6q-2.15,2.13-6.49,2.13Z"/><path d="M8.84,11L10,11m-2.3,8.17A1.64,1.64,0,0,0,9.45,21q1.76,0,1.76-2.19V0h7.53V18a13.66,13.66,0,0,1-.49,4A8.08,8.08,0,0,1,16.57,25a9.42,9.42,0,0,1-3.34,2.37,10.26,10.26,0,0,1-4.13.87,8.85,8.85,0,0,1-6.48-2.6A8.69,8.69,0,0,1,0,19.17"/></svg>