<svg id="Layer_1" data-name="Layer 1" xmlns="http://www.w3.org/2000/svg" viewBox="0 0 118.38 28.2"><title>icon_jala_logo1</title><path d="M30.18,17.71V13c0-4.47-3.51-4.47-3.67-4.47a3.64,3.64,0,0,0-3.51,4A3.71,3.71,0,0,0,26.53,16a5.84,5.84,0,0,0,3-1v2.18a8.35,8.35,0,0,1-3.38.8A5.76,5.76,0,0,1,20.86,12a5.52,5.52,0,0,1,5.82-5.46,5.63,5.63,0,0,1,5.63,5.67v5.46H30.18Z" transform="translate(0 -0.55)"/><path d="M35.62,17.68V1.75h2.23l0,15.94H35.62Z" transform="translate(0 -0.55)"/><path d="M50,17.71V13c0-4.47-3.51-4.47-3.67-4.47a3.64,3.64,0,0,0-3.51,4A3.71,3.71,0,0,0,46.39,16a5.84,5.84,0,0,0,3-1v2.18a8.35,8.35,0,0,1-3.38.8A5.76,5.76,0,0,1,40.72,12a5.52,5.52,0,0,1,5.82-5.46,5.63,5.63,0,0,1,5.63,5.67v5.46H50Z" transform="translate(0 -0.55)"/><path d="M82.91,17.71l0-6.28c0-2.31-1.57-3-2.39-2.94a2.9,2.9,0,0,0-2.77,3.25v6h-2.2v-16h2.14v5.9a4.68,4.68,0,0,1,3.07-1.15,4.39,4.39,0,0,1,4.32,4.62v6.59H82.91Z" transform="translate(0 -0.55)"/><path d="M92,17.87a5.74,5.74,0,0,1-5.67-5.58,5.79,5.79,0,0,1,5.77-5.82A5.73,5.73,0,0,1,97.84,12,5.79,5.79,0,0,1,92,17.87Zm0.21-9.49a3.71,3.71,0,0,0-3.74,3.78A3.69,3.69,0,0,0,92,15.92a3.78,3.78,0,0,0,3.7-3.86A3.67,3.67,0,0,0,92.24,8.38Z" transform="translate(0 -0.55)"/><path d="M104.48,17.71c-1.45,0-2.67-.19-3.53-1.41a3.73,3.73,0,0,1-.78-2.31V3.91h2.14V6.62H106V8.8h-3.61v4.77a1.59,1.59,0,0,0,.59,1.51,2.71,2.71,0,0,0,1.87.42h1.24v2.2h-1.57Z" transform="translate(0 -0.55)"/><path d="M112.57,17.87a5.74,5.74,0,0,1-5.67-5.58,5.79,5.79,0,0,1,5.77-5.82A5.73,5.73,0,0,1,118.38,12,5.79,5.79,0,0,1,112.57,17.87Zm0.21-9.49A3.71,3.71,0,0,0,109,12.16a3.69,3.69,0,0,0,3.55,3.76,3.78,3.78,0,0,0,3.7-3.86A3.67,3.67,0,0,0,112.77,8.38Z" transform="translate(0 -0.55)"/><path d="M63.37,17.73V11.1q2.28,0,2.28-1.74a1.48,1.48,0,0,0-1.74-1.59q-1.76,0-1.76,2.19v18.8H54.63v-18a13.66,13.66,0,0,1,.49-4,8.08,8.08,0,0,1,1.68-2.92,9.42,9.42,0,0,1,3.34-2.37A10.26,10.26,0,0,1,64.26.55a8.85,8.85,0,0,1,6.48,2.6,8.69,8.69,0,0,1,2.62,6.43,8.1,8.1,0,0,1-2.35,6q-2.15,2.13-6.49,2.13Z" transform="translate(0 -0.55)"/><path d="M8.84,11.55l1.15,0m-2.3,8.17a1.64,1.64,0,0,0,1.76,1.8q1.76,0,1.76-2.19V0.55h7.53v18a13.66,13.66,0,0,1-.49,4,8.08,8.08,0,0,1-1.68,2.92,9.42,9.42,0,0,1-3.34,2.37,10.26,10.26,0,0,1-4.13.87,8.85,8.85,0,0,1-6.48-2.6A8.69,8.69,0,0,1,0,19.72" transform="translate(0 -0.55)"/></svg>