<?xml version="1.0" encoding="utf-8"?>
<!-- Generator: Adobe Illustrator 19.2.1, SVG Export Plug-In . SVG Version: 6.00 Build 0)  -->
<svg version="1.1" id="Layer_1" xmlns="http://www.w3.org/2000/svg" xmlns:xlink="http://www.w3.org/1999/xlink" x="0px" y="0px"
	 viewBox="0 0 118.4 35.1" style="enable-background:new 0 0 118.4 35.1;" xml:space="preserve">
<title>icon_jala_logo1</title>
<path d="M30.2,24.1v-4.7c0-4.5-3.5-4.5-3.7-4.5c-2,0.1-3.6,1.7-3.5,3.8c0,0.1,0,0.2,0,0.2c0.1,1.9,1.6,3.4,3.5,3.5
	c1.1-0.1,2.1-0.4,3-1v2.2c-1.1,0.5-2.2,0.8-3.4,0.8c-3.1-0.2-5.4-2.9-5.3-6c0-3,2.5-5.5,5.6-5.5c0.1,0,0.2,0,0.2,0
	c3.1,0,5.6,2.5,5.6,5.6c0,0,0,0,0,0v5.5L30.2,24.1L30.2,24.1z"/>
<path d="M35.6,24.1V8.1h2.2v15.9L35.6,24.1L35.6,24.1z"/>
<path d="M50,24.1v-4.7c0-4.5-3.5-4.5-3.7-4.5c-2,0.1-3.6,1.7-3.5,3.8c0,0.1,0,0.2,0,0.2c0.1,1.9,1.7,3.4,3.6,3.5
	c1.1-0.1,2.1-0.4,3-1v2.2c-1.1,0.5-2.2,0.8-3.4,0.8c-3.1-0.2-5.4-2.9-5.3-6c0-3,2.5-5.5,5.6-5.5c0.1,0,0.2,0,0.2,0
	c3.1,0,5.6,2.5,5.6,5.6c0,0,0,0,0,0v5.5L50,24.1L50,24.1z"/>
<path d="M82.9,24.1v-6.3c0-2.3-1.6-3-2.4-2.9c-1.6,0.1-2.8,1.4-2.8,3c0,0.1,0,0.2,0,0.2v6h-2.2v-16h2.1V14c0.9-0.7,1.9-1.1,3.1-1.1
	c2.4,0,4.4,2,4.3,4.5c0,0.1,0,0.1,0,0.2v6.6L82.9,24.1L82.9,24.1z"/>
<path d="M92,24.3c-3.1,0-5.6-2.5-5.7-5.6c0-3.2,2.6-5.8,5.8-5.8c0,0,0,0,0,0c3.1,0,5.6,2.4,5.7,5.5c0,3.2-2.5,5.8-5.7,5.9
	C92.1,24.3,92,24.3,92,24.3z M92.2,14.8c-2,0-3.7,1.6-3.7,3.7c0,0,0,0.1,0,0.1c0,2,1.5,3.7,3.5,3.8c2.1,0,3.7-1.8,3.7-3.9
	c0,0,0,0,0,0C95.7,16.5,94.2,14.9,92.2,14.8L92.2,14.8z"/>
<path d="M104.5,24.1c-1.4,0-2.7-0.2-3.5-1.4c-0.5-0.7-0.8-1.5-0.8-2.3V10.3h2.1V13h3.7v2.2h-3.6V20c-0.1,0.6,0.1,1.2,0.6,1.5
	c0.6,0.4,1.2,0.5,1.9,0.4h1.2v2.2L104.5,24.1L104.5,24.1z"/>
<path d="M112.6,24.3c-3.1,0-5.6-2.5-5.7-5.6c0-3.2,2.6-5.8,5.8-5.8c0,0,0,0,0,0c3.1,0,5.6,2.5,5.7,5.5c0,3.2-2.5,5.8-5.7,5.9
	C112.6,24.3,112.6,24.3,112.6,24.3z M112.8,14.8c-2,0-3.7,1.6-3.8,3.6c0,0,0,0.1,0,0.1c0,2,1.5,3.7,3.6,3.8c2.1,0,3.7-1.8,3.7-3.9
	c0,0,0,0,0,0C116.3,16.5,114.7,14.9,112.8,14.8L112.8,14.8z"/>
<path d="M63.4,24.1v-6.6c1.5,0,2.3-0.6,2.3-1.7c0.1-0.8-0.5-1.5-1.3-1.6c-0.1,0-0.3,0-0.4,0c-1.2,0-1.8,0.7-1.8,2.2v18.8h-7.5v-18
	c0-1.4,0.1-2.7,0.5-4c0.3-1.1,0.9-2.1,1.7-2.9c0.9-1,2.1-1.8,3.3-2.4c1.3-0.6,2.7-0.9,4.1-0.9c2.4-0.1,4.8,0.9,6.5,2.6
	c1.7,1.7,2.7,4,2.6,6.4c0.1,2.2-0.8,4.4-2.3,6c-1.4,1.4-3.6,2.1-6.5,2.1L63.4,24.1z"/>
<path d="M8.8,17.9H10 M7.7,26.1c-0.1,0.9,0.6,1.7,1.5,1.8c0.1,0,0.2,0,0.3,0c1.2,0,1.8-0.7,1.8-2.2V6.9h7.5v18c0,1.4-0.1,2.7-0.5,4
	c-0.3,1.1-0.9,2.1-1.7,2.9c-0.9,1-2.1,1.8-3.3,2.4c-1.3,0.6-2.7,0.9-4.1,0.9c-2.4,0.1-4.8-0.9-6.5-2.6c-1.7-1.7-2.7-4-2.6-6.4"/>
</svg>
