<svg id="Layer_1" data-name="Layer 1" xmlns="http://www.w3.org/2000/svg" viewBox="0 0 29.95 38.71"><defs><style>.cls-1{fill:#fff;}</style></defs><title>icon_jala_w</title><path class="cls-1" d="M20,27.7V21.06q2.28,0,2.28-1.74a1.48,1.48,0,0,0-1.74-1.59q-1.76,0-1.76,2.19v18.8H11.21v-18a13.66,13.66,0,0,1,.49-4,8.08,8.08,0,0,1,1.68-2.92,9.42,9.42,0,0,1,3.34-2.37,10.26,10.26,0,0,1,4.13-.87,8.85,8.85,0,0,1,6.48,2.6A8.69,8.69,0,0,1,30,19.54a8.1,8.1,0,0,1-2.35,6q-2.15,2.13-6.49,2.13Z"/><path class="cls-1" d="M8.84,11L10,11m-2.3,8.17A1.64,1.64,0,0,0,9.45,21q1.76,0,1.76-2.19V0h7.53V18a13.66,13.66,0,0,1-.49,4A8.08,8.08,0,0,1,16.57,25a9.42,9.42,0,0,1-3.34,2.37,10.26,10.26,0,0,1-4.13.87,8.85,8.85,0,0,1-6.48-2.6A8.69,8.69,0,0,1,0,19.17"/></svg>